<?xml version="1.0" encoding="UTF-8"?><svg id="Layer_1" xmlns="http://www.w3.org/2000/svg" xmlns:xlink="http://www.w3.org/1999/xlink" viewBox="0 0 423.86 90.24"><defs><style>.cls-1{fill:url(#linear-gradient);}</style><linearGradient id="linear-gradient" x1="-36.57" y1="70.3" x2="460.08" y2="20.82" gradientTransform="translate(0 91.38) scale(1 -1)" gradientUnits="userSpaceOnUse"><stop offset="0" stop-color="#4c735a"/><stop offset=".43" stop-color="#4f5468"/><stop offset="1" stop-color="#d2d8b0"/></linearGradient></defs><path class="cls-1" d="m31.8,90.24c-7.36,0-13.6-1.24-18.72-3.72-5.12-2.56-9.48-5.84-13.08-9.84l12-12.12c5.68,6.4,12.68,9.6,21,9.6,4.48,0,7.8-.92,9.96-2.76,2.16-1.84,3.24-4.28,3.24-7.32,0-2.32-.64-4.24-1.92-5.76-1.28-1.6-3.88-2.68-7.8-3.24l-8.28-1.08c-8.88-1.12-15.4-3.8-19.56-8.04-4.08-4.24-6.12-9.88-6.12-16.92,0-3.76.72-7.2,2.16-10.32,1.44-3.12,3.48-5.8,6.12-8.04,2.72-2.24,6-3.96,9.84-5.16,3.92-1.28,8.36-1.92,13.32-1.92,6.32,0,11.88,1,16.68,3,4.8,2,8.92,4.92,12.36,8.76l-12.12,12.24c-2-2.32-4.44-4.2-7.32-5.64-2.8-1.52-6.36-2.28-10.68-2.28-4.08,0-7.12.72-9.12,2.16-2,1.44-3,3.44-3,6,0,2.88.76,4.96,2.28,6.24,1.6,1.28,4.16,2.2,7.68,2.76l8.28,1.32c8.64,1.36,15.04,4.04,19.2,8.04,4.16,3.92,6.24,9.52,6.24,16.8,0,4-.72,7.68-2.16,11.04s-3.56,6.24-6.36,8.64c-2.72,2.4-6.12,4.28-10.2,5.64-4.08,1.28-8.72,1.92-13.92,1.92ZM78.6,0h17.76v36.48h.72c1.12-3.28,3.08-6.12,5.88-8.52,2.8-2.4,6.68-3.6,11.64-3.6,6.48,0,11.36,2.16,14.64,6.48,3.36,4.32,5.04,10.48,5.04,18.48v39.48h-17.76v-38.04c0-4.08-.64-7.08-1.92-9-1.28-2-3.56-3-6.84-3-1.44,0-2.84.2-4.2.6-1.36.32-2.6.88-3.72,1.68-1.04.8-1.88,1.8-2.52,3-.64,1.12-.96,2.44-.96,3.96v40.8h-17.76V0Zm108.68,78.24h-.6c-.56,1.6-1.32,3.12-2.28,4.56-.88,1.44-2.04,2.72-3.48,3.84-1.44,1.12-3.16,2-5.16,2.64-1.92.64-4.16.96-6.72.96-6.48,0-11.4-2.12-14.76-6.36-3.28-4.32-4.92-10.48-4.92-18.48V25.8h17.76v38.04c0,3.84.68,6.8,2.04,8.88s3.68,3.12,6.96,3.12c1.36,0,2.72-.2,4.08-.6,1.36-.4,2.56-.96,3.6-1.68,1.04-.8,1.88-1.76,2.52-2.88.64-1.12.96-2.44.96-3.96V25.8h17.76v63h-17.76v-10.56ZM221.57,0h17.76v36.36h.6c.88-3.52,2.88-6.4,6-8.64,3.2-2.24,6.84-3.36,10.92-3.36,8,0,14.04,2.8,18.12,8.4,4.08,5.6,6.12,13.76,6.12,24.48s-2.04,18.92-6.12,24.6c-4.08,5.6-10.12,8.4-18.12,8.4-2.08,0-4.04-.32-5.88-.96-1.84-.56-3.52-1.36-5.04-2.4-1.44-1.12-2.68-2.4-3.72-3.84-1.04-1.52-1.8-3.12-2.28-4.8h-.6v10.56h-17.76V0Zm29.4,75.84c3.36,0,6.12-1.16,8.28-3.48,2.24-2.4,3.36-5.6,3.36-9.6v-10.92c0-4-1.12-7.16-3.36-9.48-2.16-2.4-4.92-3.6-8.28-3.6s-6.16.84-8.4,2.52c-2.16,1.6-3.24,3.84-3.24,6.72v18.6c0,2.88,1.08,5.16,3.24,6.84,2.24,1.6,5.04,2.4,8.4,2.4Zm90.17,12.96c-3.2,0-5.88-1-8.04-3-2.08-2-3.4-4.68-3.96-8.04h-.72c-.96,4.08-3.08,7.2-6.36,9.36-3.28,2.08-7.32,3.12-12.12,3.12-6.32,0-11.16-1.68-14.52-5.04-3.36-3.36-5.04-7.8-5.04-13.32,0-6.64,2.4-11.56,7.2-14.76,4.88-3.28,11.48-4.92,19.8-4.92h9.96v-3.96c0-3.04-.8-5.44-2.4-7.2-1.6-1.84-4.28-2.76-8.04-2.76-3.52,0-6.32.76-8.4,2.28-2.08,1.52-3.8,3.24-5.16,5.16l-10.56-9.36c2.56-3.76,5.76-6.68,9.6-8.76,3.92-2.16,9.2-3.24,15.84-3.24,8.96,0,15.68,1.96,20.16,5.88,4.48,3.92,6.72,9.64,6.72,17.16v27.6h5.88v13.8h-9.84Zm-24.6-10.92c2.96,0,5.48-.64,7.56-1.92,2.16-1.28,3.24-3.36,3.24-6.24v-7.44h-8.64c-6.96,0-10.44,2.36-10.44,7.08v1.8c0,2.32.72,4.04,2.16,5.16,1.44,1.04,3.48,1.56,6.12,1.56ZM362.9,0h17.76v52.44h.72l7.8-11.64,12.6-15h19.68l-21,24.12,23.4,38.88h-21.12l-14.16-26.64-7.92,8.88v17.76h-17.76V0Z"/></svg>