<svg width="1121" height="112" viewBox="0 0 1121 112" fill="none" xmlns="http://www.w3.org/2000/svg">
<path d="M32.36 93.44C25 93.44 18.76 92.2 13.64 89.72C8.52 87.16 4.16 83.88 0.56 79.88L12.56 67.76C18.24 74.16 25.24 77.36 33.56 77.36C38.04 77.36 41.36 76.44 43.52 74.6C45.68 72.76 46.76 70.32 46.76 67.28C46.76 64.96 46.12 63.04 44.84 61.52C43.56 59.92 40.96 58.84 37.04 58.28L28.76 57.2C19.88 56.08 13.36 53.4 9.2 49.16C5.12 44.92 3.08 39.28 3.08 32.24C3.08 28.48 3.8 25.04 5.24 21.92C6.68 18.8 8.72 16.12 11.36 13.88C14.08 11.64 17.36 9.92 21.2 8.72C25.12 7.44 29.56 6.8 34.52 6.8C40.84 6.8 46.4 7.79999 51.2 9.79999C56 11.8 60.12 14.72 63.56 18.56L51.44 30.8C49.44 28.48 47 26.6 44.12 25.16C41.32 23.64 37.76 22.88 33.44 22.88C29.36 22.88 26.32 23.6 24.32 25.04C22.32 26.48 21.32 28.48 21.32 31.04C21.32 33.92 22.08 36 23.6 37.28C25.2 38.56 27.76 39.48 31.28 40.04L39.56 41.36C48.2 42.72 54.6 45.4 58.76 49.4C62.92 53.32 65 58.92 65 66.2C65 70.2 64.28 73.88 62.84 77.24C61.4 80.6 59.28 83.48 56.48 85.88C53.76 88.28 50.36 90.16 46.28 91.52C42.2 92.8 37.56 93.44 32.36 93.44ZM79.1628 3.2H96.9228V39.68H97.6428C98.7628 36.4 100.723 33.56 103.523 31.16C106.323 28.76 110.203 27.56 115.163 27.56C121.643 27.56 126.523 29.72 129.803 34.04C133.163 38.36 134.843 44.52 134.843 52.52V92H117.083V53.96C117.083 49.88 116.443 46.88 115.163 44.96C113.883 42.96 111.603 41.96 108.323 41.96C106.883 41.96 105.483 42.16 104.123 42.56C102.763 42.88 101.523 43.44 100.403 44.24C99.3628 45.04 98.5228 46.04 97.8828 47.24C97.2428 48.36 96.9228 49.68 96.9228 51.2V92H79.1628V3.2ZM187.847 81.44H187.247C186.687 83.04 185.927 84.56 184.967 86C184.087 87.44 182.927 88.72 181.487 89.84C180.047 90.96 178.327 91.84 176.327 92.48C174.407 93.12 172.167 93.44 169.607 93.44C163.127 93.44 158.207 91.32 154.847 87.08C151.567 82.76 149.927 76.6 149.927 68.6V29H167.687V67.04C167.687 70.88 168.367 73.84 169.727 75.92C171.087 78 173.407 79.04 176.687 79.04C178.047 79.04 179.407 78.84 180.767 78.44C182.127 78.04 183.327 77.48 184.367 76.76C185.407 75.96 186.247 75 186.887 73.88C187.527 72.76 187.847 71.44 187.847 69.92V29H205.607V92H187.847V81.44ZM222.132 3.2H239.892V39.56H240.492C241.372 36.04 243.372 33.16 246.492 30.92C249.692 28.68 253.332 27.56 257.412 27.56C265.412 27.56 271.452 30.36 275.532 35.96C279.612 41.56 281.652 49.72 281.652 60.44C281.652 71.16 279.612 79.36 275.532 85.04C271.452 90.64 265.412 93.44 257.412 93.44C255.332 93.44 253.372 93.12 251.532 92.48C249.692 91.92 248.012 91.12 246.492 90.08C245.052 88.96 243.812 87.68 242.772 86.24C241.732 84.72 240.972 83.12 240.492 81.44H239.892V92H222.132V3.2ZM251.532 79.04C254.892 79.04 257.652 77.88 259.812 75.56C262.052 73.16 263.172 69.96 263.172 65.96V55.04C263.172 51.04 262.052 47.88 259.812 45.56C257.652 43.16 254.892 41.96 251.532 41.96C248.172 41.96 245.372 42.8 243.132 44.48C240.972 46.08 239.892 48.32 239.892 51.2V69.8C239.892 72.68 240.972 74.96 243.132 76.64C245.372 78.24 248.172 79.04 251.532 79.04ZM341.699 92C338.499 92 335.819 91 333.659 89C331.579 87 330.259 84.32 329.699 80.96H328.979C328.019 85.04 325.899 88.16 322.619 90.32C319.339 92.4 315.299 93.44 310.499 93.44C304.179 93.44 299.339 91.76 295.979 88.4C292.619 85.04 290.939 80.6 290.939 75.08C290.939 68.44 293.339 63.52 298.139 60.32C303.019 57.04 309.619 55.4 317.939 55.4H327.899V51.44C327.899 48.4 327.099 46 325.499 44.24C323.899 42.4 321.219 41.48 317.459 41.48C313.939 41.48 311.139 42.24 309.059 43.76C306.979 45.28 305.259 47 303.899 48.92L293.339 39.56C295.899 35.8 299.099 32.88 302.939 30.8C306.859 28.64 312.139 27.56 318.779 27.56C327.739 27.56 334.459 29.52 338.939 33.44C343.419 37.36 345.659 43.08 345.659 50.6V78.2H351.539V92H341.699ZM317.099 81.08C320.059 81.08 322.579 80.44 324.659 79.16C326.819 77.88 327.899 75.8 327.899 72.92V65.48H319.259C312.299 65.48 308.819 67.84 308.819 72.56V74.36C308.819 76.68 309.539 78.4 310.979 79.52C312.419 80.56 314.459 81.08 317.099 81.08ZM363.46 3.2H381.22V55.64H381.94L389.74 44L402.34 29H422.02L401.02 53.12L424.42 92H403.3L389.14 65.36L381.22 74.24V92H363.46V3.2ZM469.357 108.56V0.799994H484.477V108.56H469.357ZM562.938 93.2C554.271 93.2 547.571 90.2 542.838 84.2C538.104 78.1333 535.738 69.1667 535.738 57.3C535.738 45.5 538.104 36.5 542.838 30.3C547.571 24.1 554.271 21 562.938 21C568.538 21 573.238 22.3333 577.038 25C580.904 27.6667 583.904 31.3 586.038 35.9L581.138 38.8C579.604 35 577.271 32 574.138 29.8C571.071 27.5333 567.338 26.4 562.938 26.4C556.404 26.4 551.304 28.7333 547.638 33.4C543.971 38.0667 542.138 44.7333 542.138 53.4V61.3C542.138 69.9 543.971 76.4667 547.638 81C551.304 85.5333 556.404 87.8 562.938 87.8C567.604 87.8 571.504 86.6333 574.638 84.3C577.771 81.9 580.104 78.7 581.638 74.7L586.538 77.6C584.471 82.4 581.438 86.2 577.438 89C573.438 91.8 568.604 93.2 562.938 93.2ZM618.656 93.2C615.256 93.2 612.19 92.6 609.456 91.4C606.723 90.2 604.39 88.4667 602.456 86.2C600.523 83.8667 599.023 81.0333 597.956 77.7C596.89 74.3667 596.356 70.6 596.356 66.4C596.356 62.2 596.89 58.4667 597.956 55.2C599.023 51.8667 600.523 49.0667 602.456 46.8C604.39 44.4667 606.723 42.7 609.456 41.5C612.19 40.2333 615.256 39.6 618.656 39.6C622.056 39.6 625.123 40.2333 627.856 41.5C630.59 42.7 632.923 44.4667 634.856 46.8C636.79 49.0667 638.29 51.8667 639.356 55.2C640.423 58.4667 640.956 62.2 640.956 66.4C640.956 70.6 640.423 74.3667 639.356 77.7C638.29 81.0333 636.79 83.8667 634.856 86.2C632.923 88.4667 630.59 90.2 627.856 91.4C625.123 92.6 622.056 93.2 618.656 93.2ZM618.656 88.1C623.656 88.1 627.59 86.5333 630.456 83.4C633.39 80.2667 634.856 75.6667 634.856 69.6V63.2C634.856 57.2 633.39 52.6333 630.456 49.5C627.59 46.3 623.656 44.7 618.656 44.7C613.656 44.7 609.69 46.2667 606.756 49.4C603.89 52.5333 602.456 57.1333 602.456 63.2V69.6C602.456 75.6 603.89 80.2 606.756 83.4C609.69 86.5333 613.656 88.1 618.656 88.1ZM655.437 92V40.8H661.137V48.9H661.437C662.57 46.2333 664.337 44.0333 666.737 42.3C669.137 40.5 672.403 39.6 676.537 39.6C682.003 39.6 686.237 41.3 689.237 44.7C692.303 48.0333 693.837 52.8333 693.837 59.1V92H688.137V60.1C688.137 54.9 687.003 51.0333 684.737 48.5C682.537 45.9667 679.303 44.7 675.037 44.7C673.237 44.7 671.503 44.9333 669.837 45.4C668.17 45.8667 666.67 46.5667 665.337 47.5C664.07 48.4333 663.037 49.6333 662.237 51.1C661.503 52.5 661.137 54.1333 661.137 56V92H655.437ZM720.584 92C718.518 92 716.951 91.4333 715.884 90.3C714.818 89.1667 714.284 87.6333 714.284 85.7V45.8H705.384V40.8H711.184C712.584 40.8 713.518 40.5333 713.984 40C714.518 39.4 714.784 38.3667 714.784 36.9V26.5H719.984V40.8H731.584V45.8H719.984V87H730.784V92H720.584ZM745.28 92V40.8H750.98V50H751.38C752.38 47.6 754.08 45.4667 756.48 43.6C758.88 41.7333 762.28 40.8 766.68 40.8H770.08V46.4H765.58C761.314 46.4 757.814 47.3333 755.08 49.2C752.347 51.0667 750.98 53.6667 750.98 57V92H745.28ZM798.93 93.2C795.53 93.2 792.463 92.6 789.73 91.4C786.996 90.2 784.663 88.4667 782.73 86.2C780.796 83.8667 779.296 81.0333 778.23 77.7C777.163 74.3667 776.63 70.6 776.63 66.4C776.63 62.2 777.163 58.4667 778.23 55.2C779.296 51.8667 780.796 49.0667 782.73 46.8C784.663 44.4667 786.996 42.7 789.73 41.5C792.463 40.2333 795.53 39.6 798.93 39.6C802.33 39.6 805.396 40.2333 808.13 41.5C810.863 42.7 813.196 44.4667 815.13 46.8C817.063 49.0667 818.563 51.8667 819.63 55.2C820.696 58.4667 821.23 62.2 821.23 66.4C821.23 70.6 820.696 74.3667 819.63 77.7C818.563 81.0333 817.063 83.8667 815.13 86.2C813.196 88.4667 810.863 90.2 808.13 91.4C805.396 92.6 802.33 93.2 798.93 93.2ZM798.93 88.1C803.93 88.1 807.863 86.5333 810.73 83.4C813.663 80.2667 815.13 75.6667 815.13 69.6V63.2C815.13 57.2 813.663 52.6333 810.73 49.5C807.863 46.3 803.93 44.7 798.93 44.7C793.93 44.7 789.963 46.2667 787.03 49.4C784.163 52.5333 782.73 57.1333 782.73 63.2V69.6C782.73 75.6 784.163 80.2 787.03 83.4C789.963 86.5333 793.93 88.1 798.93 88.1ZM842.01 92C839.943 92 838.377 91.4333 837.31 90.3C836.243 89.1667 835.71 87.6667 835.71 85.8V18H841.41V87H849.31V92H842.01ZM885.71 40.8H891.41V49H891.71C892.977 46.1333 894.91 43.8667 897.51 42.2C900.11 40.4667 903.377 39.6 907.31 39.6C913.91 39.6 919.077 41.9333 922.81 46.6C926.543 51.2667 928.41 57.8667 928.41 66.4C928.41 74.9333 926.543 81.5333 922.81 86.2C919.077 90.8667 913.91 93.2 907.31 93.2C903.377 93.2 900.143 92.3667 897.61 90.7C895.077 88.9667 893.11 86.6667 891.71 83.8H891.41V112H885.71V40.8ZM906.01 88.1C911.143 88.1 915.143 86.4667 918.01 83.2C920.877 79.9333 922.31 75.5333 922.31 70V62.8C922.31 57.2667 920.877 52.8667 918.01 49.6C915.143 46.3333 911.143 44.7 906.01 44.7C904.01 44.7 902.11 45 900.31 45.6C898.577 46.1333 897.043 46.9 895.71 47.9C894.377 48.9 893.31 50.1 892.51 51.5C891.777 52.9 891.41 54.4333 891.41 56.1V76.4C891.41 78.2 891.777 79.8333 892.51 81.3C893.31 82.7 894.377 83.9333 895.71 85C897.043 86 898.577 86.7667 900.31 87.3C902.11 87.8333 904.01 88.1 906.01 88.1ZM978.332 92C976.132 92 974.532 91.4333 973.532 90.3C972.532 89.1667 971.965 87.6333 971.832 85.7V83.9H971.332C970.199 86.7667 968.332 89.0333 965.732 90.7C963.132 92.3667 959.832 93.2 955.832 93.2C950.432 93.2 946.265 91.9 943.332 89.3C940.399 86.6333 938.932 82.9 938.932 78.1C938.932 73.5667 940.532 69.9667 943.732 67.3C946.999 64.6333 952.332 63.3 959.732 63.3H971.532V57.3C971.532 48.8333 967.165 44.6 958.432 44.6C955.032 44.6 952.199 45.3333 949.932 46.8C947.665 48.2 945.832 50.2333 944.432 52.9L940.832 49.9C942.232 46.9 944.365 44.4333 947.232 42.5C950.165 40.5667 953.965 39.6 958.632 39.6C964.632 39.6 969.232 41.1 972.432 44.1C975.632 47.1 977.232 51.3 977.232 56.7V87H984.132V92H978.332ZM956.632 88.3C958.699 88.3 960.632 88.0333 962.432 87.5C964.232 86.9667 965.799 86.2333 967.132 85.3C968.532 84.3 969.599 83.1333 970.332 81.8C971.132 80.4 971.532 78.8333 971.532 77.1V67.6H959.532C954.399 67.6 950.665 68.4333 948.332 70.1C946.065 71.7 944.932 73.9333 944.932 76.8V79.2C944.932 82.2 945.999 84.4667 948.132 86C950.265 87.5333 953.099 88.3 956.632 88.3ZM995.866 92V40.8H1001.57V48.9H1001.87C1003 46.2333 1004.77 44.0333 1007.17 42.3C1009.57 40.5 1012.83 39.6 1016.97 39.6C1022.43 39.6 1026.67 41.3 1029.67 44.7C1032.73 48.0333 1034.27 52.8333 1034.27 59.1V92H1028.57V60.1C1028.57 54.9 1027.43 51.0333 1025.17 48.5C1022.97 45.9667 1019.73 44.7 1015.47 44.7C1013.67 44.7 1011.93 44.9333 1010.27 45.4C1008.6 45.8667 1007.1 46.5667 1005.77 47.5C1004.5 48.4333 1003.47 49.6333 1002.67 51.1C1001.93 52.5 1001.57 54.1333 1001.57 56V92H995.866ZM1070.51 93.2C1067.11 93.2 1064.01 92.6 1061.21 91.4C1058.48 90.2 1056.11 88.4667 1054.11 86.2C1052.18 83.8667 1050.68 81.0333 1049.61 77.7C1048.61 74.3667 1048.11 70.6 1048.11 66.4C1048.11 62.2 1048.61 58.4667 1049.61 55.2C1050.68 51.8667 1052.18 49.0667 1054.11 46.8C1056.11 44.4667 1058.48 42.7 1061.21 41.5C1063.95 40.2333 1067.01 39.6 1070.41 39.6C1073.68 39.6 1076.65 40.2333 1079.31 41.5C1081.98 42.7 1084.25 44.4 1086.11 46.6C1087.98 48.8 1089.41 51.4667 1090.41 54.6C1091.48 57.6667 1092.01 61.0667 1092.01 64.8V67.5H1054.11V70C1054.11 72.6667 1054.48 75.1333 1055.21 77.4C1056.01 79.6 1057.11 81.5 1058.51 83.1C1059.98 84.7 1061.75 85.9667 1063.81 86.9C1065.88 87.7667 1068.21 88.2 1070.81 88.2C1078.28 88.2 1083.45 84.7667 1086.31 77.9L1090.51 80.7C1088.91 84.5 1086.38 87.5333 1082.91 89.8C1079.51 92.0667 1075.38 93.2 1070.51 93.2ZM1070.41 44.4C1067.95 44.4 1065.71 44.8667 1063.71 45.8C1061.71 46.6667 1059.98 47.9 1058.51 49.5C1057.11 51.1 1056.01 53.0333 1055.21 55.3C1054.48 57.5 1054.11 59.9333 1054.11 62.6V63.1H1085.81V62.3C1085.81 59.6333 1085.45 57.2 1084.71 55C1083.98 52.7333 1082.91 50.8333 1081.51 49.3C1080.18 47.7667 1078.55 46.5667 1076.61 45.7C1074.75 44.8333 1072.68 44.4 1070.41 44.4ZM1112.81 92C1110.74 92 1109.18 91.4333 1108.11 90.3C1107.04 89.1667 1106.51 87.6667 1106.51 85.8V18H1112.21V87H1120.11V92H1112.81Z" fill="url(#paint0_linear_540_762)"/>
<defs>
<linearGradient id="paint0_linear_540_762" x1="-94.5" y1="-37.9999" x2="1210.5" y2="92.0002" gradientUnits="userSpaceOnUse">
<stop stop-color="#4C735A"/>
<stop offset="0.432287" stop-color="#4F5468"/>
<stop offset="1" stop-color="#D2D8B0"/>
</linearGradient>
</defs>
</svg>
