<svg xmlns="http://www.w3.org/2000/svg" enable-background="new 0 0 1000 1000" viewBox="0 0 1000 1000" id="chair"><path fill="none" stroke="#000" stroke-linecap="round" stroke-linejoin="round" stroke-miterlimit="10" stroke-width="30" d="M700.76,646.97H299.24c-41.08,0-74.39-33.3-74.39-74.39l0,0c0-41.08,33.31-74.39,74.39-74.39h401.52
					c41.08,0,74.39,33.3,74.39,74.39l0,0C775.15,613.67,741.84,646.97,700.76,646.97z"></path><polyline fill="none" stroke="#000" stroke-linecap="round" stroke-linejoin="round" stroke-miterlimit="10" stroke-width="30" points="224.85 572.58 224.85 408.57 153.15 408.57"></polyline><path fill="none" stroke="#000" stroke-linecap="round" stroke-linejoin="round" stroke-miterlimit="10" stroke-width="30" d="M775.15 572.58V411.17c0-1.44 1.17-2.6 2.61-2.6h69.09M298.63 498.13l25.3-378.45C328.16 66.26 372.82 25 426.38 25h147.25c53.56 0 98.22 41.26 102.46 94.68l25.3 378.45"></path><line x1="500" x2="500" y1="646.97" y2="817.26" fill="none" stroke="#000" stroke-linecap="round" stroke-linejoin="round" stroke-miterlimit="10" stroke-width="30"></line><polyline fill="none" stroke="#000" stroke-linecap="round" stroke-linejoin="round" stroke-miterlimit="10" stroke-width="30" points="275.94 903.3 275.94 817.26 275.94 817.26 724.06 817.26 724.06 903.3"></polyline><path fill="none" stroke="#000" stroke-linecap="round" stroke-linejoin="round" stroke-miterlimit="10" stroke-width="30" d="M311.79 939.15c0 19.8-16.05 35.85-35.85 35.85-19.8 0-35.85-16.05-35.85-35.85s16.05-35.85 35.85-35.85C295.74 903.3 311.79 919.35 311.79 939.15zM759.91 939.15c0 19.8-16.05 35.85-35.85 35.85-19.8 0-35.85-16.05-35.85-35.85s16.05-35.85 35.85-35.85C743.86 903.3 759.91 919.35 759.91 939.15z"></path><polygon fill="none" stroke="#000" stroke-linecap="round" stroke-linejoin="round" stroke-miterlimit="10" stroke-width="30" points="605.74 396.6 394.26 396.6 414.72 139.27 585.28 139.27"></polygon></svg>