<?xml version="1.0" encoding="UTF-8"?><svg id="Layer_2" xmlns="http://www.w3.org/2000/svg" viewBox="0 0 398.44 537.13"><defs><style>.cls-1{stroke-width:0px;}</style></defs><g id="Layer_1-2"><path class="cls-1" d="M.09,537.13c-.83-106.93,3.71-177.75,29.36-223.25,18.03-31.99,47.7-56.8,84.85-71.89-9.99-26-13.79-58.07-14.82-95.35-1.2-43.26,14.42-80.5,45.19-107.68C171.56,15.2,207.73,1.4,246.52.09c70.16-2.34,147.55,39.15,151.37,135.89,3.11,78.9-5.52,185.79-64.35,246.99-.99,1.03-1.99,2.04-2.99,3.03,31.94,32.49,47.59,82.41,47.59,151h-34.94c0-61.39-13.01-103.45-40.49-129.23-25.83,15.71-56.5,23.64-91.62,23.64-51.78,0-90.86-15.69-97.25-39.03-3.23-11.81,1.94-23.4,13.49-30.23,57.42-33.96,126.74-19.86,158.64-6.18,5.83,2.5,11.38,5.29,16.65,8.37,1.95-1.79,3.86-3.65,5.72-5.59,50.3-52.33,57.47-149.28,54.63-221.4-2.89-73.28-60.1-104.19-115.28-102.35-79.88,2.69-114.73,59.25-113.3,110.66,1.08,38.83,5.46,66.27,13.38,85.86,7.55-1.72,15.32-3.08,23.27-4.07,54.66-6.83,106.87,4.81,129.89,28.96,8.52,8.94,10.13,21.54,4.2,32.87-8.96,17.11-38.44,34.11-92.03,25.73-38.77-6.07-64.65-20.55-81.79-42.38-41.36,15.4-61.99,41.64-71.44,58.4-21.73,38.55-25.62,107.34-24.85,205.83l-34.94.27ZM155.25,386.95c9.88,4.49,28.27,9.53,55.84,9.53,21.36,0,40.21-3.34,56.83-10.12-24.09-9.1-71.7-18.05-112.67.59ZM170.3,262.82c12.58,9.76,28.58,14.61,48.21,17.68,27.82,4.36,44.68-.23,51.88-4.33-16.78-11.36-53.82-19.18-95.02-14.04-1.72.21-3.4.44-5.07.69Z"/></g></svg>